<?xml version="1.0" standalone="no"?><!DOCTYPE svg PUBLIC "-//W3C//DTD SVG 1.1//EN" "http://www.w3.org/Graphics/SVG/1.1/DTD/svg11.dtd"><svg t="1645280178065" class="icon" viewBox="0 0 1024 1024" version="1.1" xmlns="http://www.w3.org/2000/svg" p-id="10514" xmlns:xlink="http://www.w3.org/1999/xlink" width="32" height="32"><defs><style type="text/css"></style></defs><path d="M899.4 842.5l-62.5-496c-3.5-28-27.3-48.9-55.5-48.9h-96.3v-57.2C685.1 144.2 607.4 66 512 66c-95.5 0-173.1 78.2-173.1 174.4v57.2h-96.4c-28.2 0-51.9 20.9-55.5 48.9l-62.4 496c-0.3 2.3-0.4 4.6-0.4 7v52.8c0 30.9 25 55.9 55.9 55.9H844c30.9 0 55.9-25 55.9-55.9v-52.8c0-2.3-0.2-4.7-0.5-7z m-504.6-602c0-65.4 52.6-118.5 117.2-118.5s117.2 53.2 117.2 118.5v57.2H394.8v-57.2zM180.1 902.3v-37.9h477.1c10.3 0 18.6-8.3 18.6-18.6s-8.4-18.6-18.6-18.6H183l59.6-473.6H339V393c-38.4 11.9-66.3 47.8-66.3 90 0 52 42.3 94.2 94.2 94.2 11.2 0 22.1-1.9 32.5-5.8 9.7-3.5 14.6-14.2 11.1-23.9s-14.2-14.6-23.9-11.1c-6.3 2.3-12.9 3.5-19.6 3.5-31.4 0-57-25.6-57-57 0-21.2 11.7-39.8 29-49.6v49.6c0 15.4 12.5 28 28 28 15.4 0 28-12.5 28-28v-49.6c17.3 9.8 29 28.3 29 49.6 0 10.3 8.3 18.6 18.6 18.6s18.6-8.3 18.6-18.6c0-42.2-27.9-78.1-66.3-90v-39.4h234.4v39.4c-38.4 11.9-66.3 47.8-66.3 90 0 52 42.3 94.2 94.2 94.2 11.2 0 22.1-1.9 32.5-5.7 9.7-3.5 14.6-14.2 11.1-23.9-3.6-9.7-14.3-14.6-23.9-11.1-6.3 2.3-12.9 3.5-19.7 3.5-31.4 0-57-25.6-57-57 0-21.2 11.7-39.8 29-49.6v49.6c0 15.4 12.5 28 27.9 28 15.4 0 28-12.5 28-28v-49.6c17.3 9.8 29 28.3 29 49.6 0 10.3 8.3 18.6 18.6 18.6s18.6-8.3 18.6-18.6c0-42.2-27.9-78.1-66.3-90v-39.4h96.3l59.6 473.6H756c-10.3 0-18.6 8.3-18.6 18.6s8.3 18.6 18.6 18.6h88v37.9H180.1z" fill="#d81e06" p-id="10515"></path></svg>