<?xml version="1.0" standalone="no"?><!DOCTYPE svg PUBLIC "-//W3C//DTD SVG 1.1//EN" "http://www.w3.org/Graphics/SVG/1.1/DTD/svg11.dtd"><svg t="1645274726021" class="icon" viewBox="0 0 1025 1024" version="1.1" xmlns="http://www.w3.org/2000/svg" p-id="6469" xmlns:xlink="http://www.w3.org/1999/xlink" width="200.1953125" height="200"><defs><style type="text/css"></style></defs><path d="M896.379 1024 128.054 1024C57.33 1024 0 966.67 0 895.946L0 191.648C0 120.924 57.33 63.594 128.054 63.594l768.324 0c70.724 0 128.054 57.33 128.054 128.054l0 704.297C1024.433 966.67 967.103 1024 896.379 1024zM192.081 895.946l640.27 0c35.362 0 64.027-28.665 64.027-64.027L896.378 339.788C767.998 468.168 602.763 633.403 602.763 633.403c-50.011 50.005-131.089 50.005-181.094 0 0 0-165.247-165.241-293.615-293.615l0 492.131C128.054 867.281 156.719 895.946 192.081 895.946zM192.081 191.648c-9.13 0-17.729 2.036-25.592 5.481l300.453 300.453c25.003 25.003 65.544 25.003 90.547 0l300.453-300.453c-7.863-3.445-16.461-5.481-25.592-5.481L192.081 191.648z" p-id="6470" fill="#d81e06"></path></svg>